G04 #@! TF.FileFunction,Copper,L1,Top,Signal*
%FSLAX46Y46*%
G04 Gerber Fmt 4.6, Leading zero omitted, Abs format (unit mm)*
G04 Created by KiCad (PCBNEW 4.0.4+e1-6308~48~ubuntu14.04.1-stable) date Sat Nov 26 19:44:48 2016*
%MOMM*%
%LPD*%
G01*
G04 APERTURE LIST*
%ADD10C,0.350000*%
%ADD11R,7.500000X3.125000*%
%ADD12R,7.500000X1.750000*%
%ADD13R,1.000000X1.000000*%
%ADD14C,0.600000*%
%ADD15C,0.152400*%
%ADD16C,0.600000*%
%ADD17C,0.254000*%
%ADD18C,0.300000*%
%ADD19O,0.799999X2.499999*%
G04 APERTURE END LIST*
D10*
D11*
X22000000Y-27187500D03*
X22000000Y-19812500D03*
D12*
X22000000Y-24500000D03*
X22000000Y-22500000D03*
D10*
G36*
X18250000Y-25625000D02*
X18250000Y-28750000D01*
X17250000Y-27750000D01*
X17250000Y-26625000D01*
X18250000Y-25625000D01*
X18250000Y-25625000D01*
G37*
G36*
X18250000Y-18262500D02*
X18250000Y-21387500D01*
X17250000Y-20387500D01*
X17250000Y-19262500D01*
X18250000Y-18262500D01*
X18250000Y-18262500D01*
G37*
D13*
X17750000Y-26125000D03*
X17750000Y-20875000D03*
D14*
X17571506Y-20339356D03*
X18913411Y-20751800D03*
X17953010Y-25738151D03*
X18968427Y-22858094D03*
X19015031Y-24053800D03*
X28295600Y-18542000D03*
X28295600Y-20675600D03*
X26202402Y-25908000D03*
X26995421Y-23469600D03*
X28255990Y-24079203D03*
X28295600Y-25450800D03*
X28255968Y-22961600D03*
X26365200Y-27166979D03*
X28295600Y-21539200D03*
X26365184Y-27919390D03*
X28346400Y-28397200D03*
X28346400Y-26365200D03*
D15*
X17995770Y-20339356D02*
X17571506Y-20339356D01*
X18500967Y-20339356D02*
X17995770Y-20339356D01*
X18913411Y-20751800D02*
X18500967Y-20339356D01*
X17750000Y-19825000D02*
X17661598Y-19825000D01*
X17571506Y-19915092D02*
X17571506Y-20339356D01*
X17661598Y-19825000D02*
X17571506Y-19915092D01*
X17762500Y-19812500D02*
X17750000Y-19825000D01*
D16*
X19402359Y-27187500D02*
X18253009Y-26038150D01*
X18253009Y-26038150D02*
X17953010Y-25738151D01*
X17750000Y-27187500D02*
X17750000Y-25941161D01*
X17750000Y-25941161D02*
X17953010Y-25738151D01*
X22000000Y-27187500D02*
X19402359Y-27187500D01*
X22000000Y-22500000D02*
X19326521Y-22500000D01*
X19326521Y-22500000D02*
X19268426Y-22558095D01*
X19268426Y-22558095D02*
X18968427Y-22858094D01*
X19015029Y-24053798D02*
X19015031Y-24053800D01*
X18686864Y-24053798D02*
X19015029Y-24053798D01*
X22000000Y-24500000D02*
X21553798Y-24053798D01*
X19105380Y-24000000D02*
X19051582Y-24053798D01*
X21553798Y-24053798D02*
X18686864Y-24053798D01*
X19051582Y-24053798D02*
X18686864Y-24053798D01*
D15*
X26162000Y-21844000D02*
X27330400Y-20675600D01*
X26202402Y-25483736D02*
X26162000Y-25443334D01*
X26202402Y-25908000D02*
X26202402Y-25483736D01*
X26162000Y-25443334D02*
X26162000Y-21844000D01*
X27330400Y-20675600D02*
X28295600Y-20675600D01*
X28295600Y-20675600D02*
X28295600Y-18542000D01*
X27295420Y-23769599D02*
X26995421Y-23469600D01*
X28255990Y-24079203D02*
X27605024Y-24079203D01*
X27605024Y-24079203D02*
X27295420Y-23769599D01*
X28295600Y-24118813D02*
X28255990Y-24079203D01*
X28295600Y-25450800D02*
X28295600Y-24118813D01*
X26665199Y-26866980D02*
X26365200Y-27166979D01*
X26466811Y-22943725D02*
X26466811Y-23896343D01*
X26766799Y-26765380D02*
X26665199Y-26866980D01*
X26766799Y-24196331D02*
X26766799Y-26765380D01*
X26466811Y-23896343D02*
X26766799Y-24196331D01*
X28295600Y-21539200D02*
X27871336Y-21539200D01*
X27871336Y-21539200D02*
X26466811Y-22943725D01*
X28295600Y-22921968D02*
X28255968Y-22961600D01*
X28295600Y-21539200D02*
X28295600Y-22921968D01*
X26842994Y-28397200D02*
X26665183Y-28219389D01*
X26665183Y-28219389D02*
X26365184Y-27919390D01*
X28346400Y-28397200D02*
X26842994Y-28397200D01*
X28346400Y-26365200D02*
X28346400Y-28397200D01*
D17*
G36*
X29206339Y-18395118D02*
X29218872Y-18426451D01*
X29238872Y-18476452D01*
X29245538Y-18486697D01*
X29249661Y-18498203D01*
X29271076Y-18533896D01*
X29285800Y-18578067D01*
X29344754Y-18754929D01*
X29383848Y-18891758D01*
X29386677Y-18897264D01*
X29387678Y-18903371D01*
X29415528Y-18977637D01*
X29433154Y-19039329D01*
X29452538Y-19116865D01*
X29470059Y-19186951D01*
X29478930Y-19266786D01*
X29481435Y-19274687D01*
X29481620Y-19282973D01*
X29501619Y-19372973D01*
X29502439Y-19374834D01*
X29502538Y-19376865D01*
X29521663Y-19453365D01*
X29540952Y-19549809D01*
X29541583Y-19551329D01*
X29541620Y-19552973D01*
X29559655Y-19634134D01*
X29568754Y-19725125D01*
X29570944Y-19732306D01*
X29570952Y-19739810D01*
X29590952Y-19839809D01*
X29590952Y-19839810D01*
X29609493Y-19932513D01*
X29618754Y-20025125D01*
X29620554Y-20031026D01*
X29620452Y-20037191D01*
X29639360Y-20141183D01*
X29648754Y-20235125D01*
X29650554Y-20241026D01*
X29650452Y-20247191D01*
X29669238Y-20350511D01*
X29678575Y-20453223D01*
X29688525Y-20572623D01*
X29690574Y-20579764D01*
X29690452Y-20587191D01*
X29709136Y-20689950D01*
X29718525Y-20802623D01*
X29724390Y-20873000D01*
X27377000Y-20873000D01*
X27377000Y-18377000D01*
X29192750Y-18377000D01*
X29206339Y-18395118D01*
X29206339Y-18395118D01*
G37*
X29206339Y-18395118D02*
X29218872Y-18426451D01*
X29238872Y-18476452D01*
X29245538Y-18486697D01*
X29249661Y-18498203D01*
X29271076Y-18533896D01*
X29285800Y-18578067D01*
X29344754Y-18754929D01*
X29383848Y-18891758D01*
X29386677Y-18897264D01*
X29387678Y-18903371D01*
X29415528Y-18977637D01*
X29433154Y-19039329D01*
X29452538Y-19116865D01*
X29470059Y-19186951D01*
X29478930Y-19266786D01*
X29481435Y-19274687D01*
X29481620Y-19282973D01*
X29501619Y-19372973D01*
X29502439Y-19374834D01*
X29502538Y-19376865D01*
X29521663Y-19453365D01*
X29540952Y-19549809D01*
X29541583Y-19551329D01*
X29541620Y-19552973D01*
X29559655Y-19634134D01*
X29568754Y-19725125D01*
X29570944Y-19732306D01*
X29570952Y-19739810D01*
X29590952Y-19839809D01*
X29590952Y-19839810D01*
X29609493Y-19932513D01*
X29618754Y-20025125D01*
X29620554Y-20031026D01*
X29620452Y-20037191D01*
X29639360Y-20141183D01*
X29648754Y-20235125D01*
X29650554Y-20241026D01*
X29650452Y-20247191D01*
X29669238Y-20350511D01*
X29678575Y-20453223D01*
X29688525Y-20572623D01*
X29690574Y-20579764D01*
X29690452Y-20587191D01*
X29709136Y-20689950D01*
X29718525Y-20802623D01*
X29724390Y-20873000D01*
X27377000Y-20873000D01*
X27377000Y-18377000D01*
X29192750Y-18377000D01*
X29206339Y-18395118D01*
G36*
X29768448Y-21411658D02*
X29768581Y-21412132D01*
X29768525Y-21412623D01*
X29778489Y-21532191D01*
X29788448Y-21661658D01*
X29788581Y-21662132D01*
X29788525Y-21662623D01*
X29798489Y-21782191D01*
X29808000Y-21905834D01*
X29808000Y-22030000D01*
X29809152Y-22035794D01*
X29808448Y-22041658D01*
X29828000Y-22295834D01*
X29828000Y-22430000D01*
X29829152Y-22435794D01*
X29828448Y-22441658D01*
X29838000Y-22565834D01*
X29838000Y-22830000D01*
X29839152Y-22835794D01*
X29838448Y-22841658D01*
X29848000Y-22965834D01*
X29848000Y-23123000D01*
X29787800Y-23123000D01*
X29787800Y-22589637D01*
X29736084Y-22329642D01*
X29588808Y-22109229D01*
X29368395Y-21961953D01*
X29108400Y-21910237D01*
X28848405Y-21961953D01*
X28627992Y-22109229D01*
X28480716Y-22329642D01*
X28429000Y-22589637D01*
X28429000Y-23123000D01*
X27468107Y-23123000D01*
X27377000Y-23031734D01*
X27377000Y-21377000D01*
X29765782Y-21377000D01*
X29768448Y-21411658D01*
X29768448Y-21411658D01*
G37*
X29768448Y-21411658D02*
X29768581Y-21412132D01*
X29768525Y-21412623D01*
X29778489Y-21532191D01*
X29788448Y-21661658D01*
X29788581Y-21662132D01*
X29788525Y-21662623D01*
X29798489Y-21782191D01*
X29808000Y-21905834D01*
X29808000Y-22030000D01*
X29809152Y-22035794D01*
X29808448Y-22041658D01*
X29828000Y-22295834D01*
X29828000Y-22430000D01*
X29829152Y-22435794D01*
X29828448Y-22441658D01*
X29838000Y-22565834D01*
X29838000Y-22830000D01*
X29839152Y-22835794D01*
X29838448Y-22841658D01*
X29848000Y-22965834D01*
X29848000Y-23123000D01*
X29787800Y-23123000D01*
X29787800Y-22589637D01*
X29736084Y-22329642D01*
X29588808Y-22109229D01*
X29368395Y-21961953D01*
X29108400Y-21910237D01*
X28848405Y-21961953D01*
X28627992Y-22109229D01*
X28480716Y-22329642D01*
X28429000Y-22589637D01*
X28429000Y-23123000D01*
X27468107Y-23123000D01*
X27377000Y-23031734D01*
X27377000Y-21377000D01*
X29765782Y-21377000D01*
X29768448Y-21411658D01*
G36*
X29718525Y-26197377D02*
X29709136Y-26310050D01*
X29690452Y-26412809D01*
X29690574Y-26420236D01*
X29688525Y-26427377D01*
X29678575Y-26546777D01*
X29669238Y-26649489D01*
X29650452Y-26752809D01*
X29650554Y-26758974D01*
X29648754Y-26764875D01*
X29639360Y-26858817D01*
X29620452Y-26962809D01*
X29620554Y-26968974D01*
X29618754Y-26974875D01*
X29609493Y-27067487D01*
X29590952Y-27160190D01*
X29590952Y-27160191D01*
X29570952Y-27260190D01*
X29570944Y-27267694D01*
X29568754Y-27274875D01*
X29559655Y-27365866D01*
X29541620Y-27447027D01*
X29541583Y-27448671D01*
X29540952Y-27450191D01*
X29521663Y-27546635D01*
X29502538Y-27623135D01*
X29502439Y-27625166D01*
X29501619Y-27627027D01*
X29481620Y-27717027D01*
X29481435Y-27725313D01*
X29478930Y-27733214D01*
X29470059Y-27813049D01*
X29452538Y-27883135D01*
X29433154Y-27960671D01*
X29415528Y-28022363D01*
X29387678Y-28096629D01*
X29386677Y-28102736D01*
X29383848Y-28108242D01*
X29344754Y-28245071D01*
X29285800Y-28421933D01*
X29271076Y-28466104D01*
X29249661Y-28501797D01*
X29245538Y-28513303D01*
X29238872Y-28523548D01*
X29218873Y-28573546D01*
X29218872Y-28573548D01*
X29206339Y-28604882D01*
X29192750Y-28623000D01*
X27377000Y-28623000D01*
X27377000Y-26127000D01*
X29724390Y-26127000D01*
X29718525Y-26197377D01*
X29718525Y-26197377D01*
G37*
X29718525Y-26197377D02*
X29709136Y-26310050D01*
X29690452Y-26412809D01*
X29690574Y-26420236D01*
X29688525Y-26427377D01*
X29678575Y-26546777D01*
X29669238Y-26649489D01*
X29650452Y-26752809D01*
X29650554Y-26758974D01*
X29648754Y-26764875D01*
X29639360Y-26858817D01*
X29620452Y-26962809D01*
X29620554Y-26968974D01*
X29618754Y-26974875D01*
X29609493Y-27067487D01*
X29590952Y-27160190D01*
X29590952Y-27160191D01*
X29570952Y-27260190D01*
X29570944Y-27267694D01*
X29568754Y-27274875D01*
X29559655Y-27365866D01*
X29541620Y-27447027D01*
X29541583Y-27448671D01*
X29540952Y-27450191D01*
X29521663Y-27546635D01*
X29502538Y-27623135D01*
X29502439Y-27625166D01*
X29501619Y-27627027D01*
X29481620Y-27717027D01*
X29481435Y-27725313D01*
X29478930Y-27733214D01*
X29470059Y-27813049D01*
X29452538Y-27883135D01*
X29433154Y-27960671D01*
X29415528Y-28022363D01*
X29387678Y-28096629D01*
X29386677Y-28102736D01*
X29383848Y-28108242D01*
X29344754Y-28245071D01*
X29285800Y-28421933D01*
X29271076Y-28466104D01*
X29249661Y-28501797D01*
X29245538Y-28513303D01*
X29238872Y-28523548D01*
X29218873Y-28573546D01*
X29218872Y-28573548D01*
X29206339Y-28604882D01*
X29192750Y-28623000D01*
X27377000Y-28623000D01*
X27377000Y-26127000D01*
X29724390Y-26127000D01*
X29718525Y-26197377D01*
G36*
X28429000Y-24349563D02*
X28480716Y-24609558D01*
X28627992Y-24829971D01*
X28848405Y-24977247D01*
X29108400Y-25028963D01*
X29368395Y-24977247D01*
X29588808Y-24829971D01*
X29736084Y-24609558D01*
X29787800Y-24349563D01*
X29787800Y-23877000D01*
X29848000Y-23877000D01*
X29848000Y-24034166D01*
X29838448Y-24158342D01*
X29839152Y-24164206D01*
X29838000Y-24170000D01*
X29838000Y-24434166D01*
X29828448Y-24558342D01*
X29829152Y-24564206D01*
X29828000Y-24570000D01*
X29828000Y-24704166D01*
X29808448Y-24958342D01*
X29809152Y-24964206D01*
X29808000Y-24970000D01*
X29808000Y-25094166D01*
X29798489Y-25217809D01*
X29788525Y-25337377D01*
X29788581Y-25337868D01*
X29788448Y-25338342D01*
X29778489Y-25467809D01*
X29768525Y-25587377D01*
X29768581Y-25587868D01*
X29768448Y-25588342D01*
X29765782Y-25623000D01*
X27377000Y-25623000D01*
X27377000Y-23877000D01*
X28429000Y-23877000D01*
X28429000Y-24349563D01*
X28429000Y-24349563D01*
G37*
X28429000Y-24349563D02*
X28480716Y-24609558D01*
X28627992Y-24829971D01*
X28848405Y-24977247D01*
X29108400Y-25028963D01*
X29368395Y-24977247D01*
X29588808Y-24829971D01*
X29736084Y-24609558D01*
X29787800Y-24349563D01*
X29787800Y-23877000D01*
X29848000Y-23877000D01*
X29848000Y-24034166D01*
X29838448Y-24158342D01*
X29839152Y-24164206D01*
X29838000Y-24170000D01*
X29838000Y-24434166D01*
X29828448Y-24558342D01*
X29829152Y-24564206D01*
X29828000Y-24570000D01*
X29828000Y-24704166D01*
X29808448Y-24958342D01*
X29809152Y-24964206D01*
X29808000Y-24970000D01*
X29808000Y-25094166D01*
X29798489Y-25217809D01*
X29788525Y-25337377D01*
X29788581Y-25337868D01*
X29788448Y-25338342D01*
X29778489Y-25467809D01*
X29768525Y-25587377D01*
X29768581Y-25587868D01*
X29768448Y-25588342D01*
X29765782Y-25623000D01*
X27377000Y-25623000D01*
X27377000Y-23877000D01*
X28429000Y-23877000D01*
X28429000Y-24349563D01*
D18*
X17571506Y-20339356D03*
X18913411Y-20751800D03*
X17953010Y-25738151D03*
X18968427Y-22858094D03*
X19015031Y-24053800D03*
X28295600Y-18542000D03*
X28295600Y-20675600D03*
X26202402Y-25908000D03*
X26995421Y-23469600D03*
X28255990Y-24079203D03*
X28295600Y-25450800D03*
X28255968Y-22961600D03*
X26365200Y-27166979D03*
X28295600Y-21539200D03*
X26365184Y-27919390D03*
X28346400Y-28397200D03*
X28346400Y-26365200D03*
D19*
X29108400Y-23469600D03*
M02*
