G04 #@! TF.FileFunction,Legend,Top*
%FSLAX46Y46*%
G04 Gerber Fmt 4.6, Leading zero omitted, Abs format (unit mm)*
G04 Created by KiCad (PCBNEW 4.0.4+e1-6308~48~ubuntu14.04.1-stable) date Sat Nov 26 19:44:48 2016*
%MOMM*%
%LPD*%
G01*
G04 APERTURE LIST*
%ADD10C,0.350000*%
%ADD11C,0.300000*%
%ADD12C,0.250000*%
G04 APERTURE END LIST*
D10*
D11*
X27381200Y-23622000D02*
X27381200Y-18084800D01*
X27381200Y-23469600D02*
X29870400Y-23469600D01*
X27381200Y-23622000D02*
X27381200Y-23368000D01*
X27381200Y-23622000D02*
X29870400Y-23622000D01*
X27381200Y-23368000D02*
X29870400Y-23368000D01*
X17881600Y-28752800D02*
X17322800Y-28143200D01*
X17272000Y-28448000D02*
X17272000Y-27736800D01*
X17576800Y-28752800D02*
X17272000Y-28448000D01*
X18288000Y-28752800D02*
X17576800Y-28752800D01*
X17272000Y-27736800D02*
X18288000Y-28752800D01*
X17836343Y-25107828D02*
X17836343Y-23964971D01*
X17836343Y-23126628D02*
X17836343Y-21983771D01*
X18407771Y-22555200D02*
X17264914Y-22555200D01*
D12*
X26303314Y-28555962D02*
X26303314Y-28175010D01*
X25969981Y-28413105D02*
X26827124Y-28413105D01*
X26922362Y-28365486D01*
X26969981Y-28270248D01*
X26969981Y-28175010D01*
X26969981Y-27698819D02*
X26922362Y-27794057D01*
X26874743Y-27841676D01*
X26779505Y-27889295D01*
X26493790Y-27889295D01*
X26398552Y-27841676D01*
X26350933Y-27794057D01*
X26303314Y-27698819D01*
X26303314Y-27555961D01*
X26350933Y-27460723D01*
X26398552Y-27413104D01*
X26493790Y-27365485D01*
X26779505Y-27365485D01*
X26874743Y-27413104D01*
X26922362Y-27460723D01*
X26969981Y-27555961D01*
X26969981Y-27698819D01*
X26969981Y-26936914D02*
X26303314Y-26936914D01*
X26398552Y-26936914D02*
X26350933Y-26889295D01*
X26303314Y-26794057D01*
X26303314Y-26651199D01*
X26350933Y-26555961D01*
X26446171Y-26508342D01*
X26969981Y-26508342D01*
X26446171Y-26508342D02*
X26350933Y-26460723D01*
X26303314Y-26365485D01*
X26303314Y-26222628D01*
X26350933Y-26127390D01*
X26446171Y-26079771D01*
X26969981Y-26079771D01*
X26303314Y-25175009D02*
X26969981Y-25175009D01*
X26303314Y-25603581D02*
X26827124Y-25603581D01*
X26922362Y-25555962D01*
X26969981Y-25460724D01*
X26969981Y-25317866D01*
X26922362Y-25222628D01*
X26874743Y-25175009D01*
X26874743Y-24698819D02*
X26922362Y-24651200D01*
X26969981Y-24698819D01*
X26922362Y-24746438D01*
X26874743Y-24698819D01*
X26969981Y-24698819D01*
X26969981Y-24222629D02*
X26303314Y-24222629D01*
X25969981Y-24222629D02*
X26017600Y-24270248D01*
X26065219Y-24222629D01*
X26017600Y-24175010D01*
X25969981Y-24222629D01*
X26065219Y-24222629D01*
X26969981Y-23746439D02*
X26303314Y-23746439D01*
X26398552Y-23746439D02*
X26350933Y-23698820D01*
X26303314Y-23603582D01*
X26303314Y-23460724D01*
X26350933Y-23365486D01*
X26446171Y-23317867D01*
X26969981Y-23317867D01*
X26446171Y-23317867D02*
X26350933Y-23270248D01*
X26303314Y-23175010D01*
X26303314Y-23032153D01*
X26350933Y-22936915D01*
X26446171Y-22889296D01*
X26969981Y-22889296D01*
X26589029Y-21651201D02*
X26589029Y-20889296D01*
X26969981Y-21270248D02*
X26208076Y-21270248D01*
X25969981Y-20222630D02*
X25969981Y-20127391D01*
X26017600Y-20032153D01*
X26065219Y-19984534D01*
X26160457Y-19936915D01*
X26350933Y-19889296D01*
X26589029Y-19889296D01*
X26779505Y-19936915D01*
X26874743Y-19984534D01*
X26922362Y-20032153D01*
X26969981Y-20127391D01*
X26969981Y-20222630D01*
X26922362Y-20317868D01*
X26874743Y-20365487D01*
X26779505Y-20413106D01*
X26589029Y-20460725D01*
X26350933Y-20460725D01*
X26160457Y-20413106D01*
X26065219Y-20365487D01*
X26017600Y-20317868D01*
X25969981Y-20222630D01*
X26874743Y-19460725D02*
X26922362Y-19413106D01*
X26969981Y-19460725D01*
X26922362Y-19508344D01*
X26874743Y-19460725D01*
X26969981Y-19460725D01*
X26065219Y-19032154D02*
X26017600Y-18984535D01*
X25969981Y-18889297D01*
X25969981Y-18651201D01*
X26017600Y-18555963D01*
X26065219Y-18508344D01*
X26160457Y-18460725D01*
X26255695Y-18460725D01*
X26398552Y-18508344D01*
X26969981Y-19079773D01*
X26969981Y-18460725D01*
M02*
