G04 #@! TF.FileFunction,Paste,Bot*
%FSLAX46Y46*%
G04 Gerber Fmt 4.6, Leading zero omitted, Abs format (unit mm)*
G04 Created by KiCad (PCBNEW 4.0.4+e1-6308~48~ubuntu14.04.1-stable) date Sat Nov 26 19:44:48 2016*
%MOMM*%
%LPD*%
G01*
G04 APERTURE LIST*
%ADD10C,0.350000*%
%ADD11R,0.600000X0.400000*%
%ADD12R,0.400000X0.600000*%
%ADD13R,0.500000X0.600000*%
%ADD14R,0.700000X0.250000*%
%ADD15R,0.250000X0.700000*%
%ADD16R,1.035000X1.035000*%
%ADD17C,1.050000*%
%ADD18R,1.050000X1.050000*%
%ADD19R,0.750000X0.300000*%
%ADD20R,0.525000X0.435000*%
G04 APERTURE END LIST*
D10*
D11*
X18135600Y-28092400D03*
D12*
X23672800Y-27736800D03*
X24003000Y-20193000D03*
X24903000Y-20193000D03*
D11*
X27300000Y-25450000D03*
X27300000Y-24550000D03*
X27305000Y-20432600D03*
X27305000Y-19532600D03*
D13*
X17780000Y-22199600D03*
X17780000Y-21099600D03*
X19590000Y-22300000D03*
X19590000Y-21200000D03*
D11*
X27300000Y-26450000D03*
X27300000Y-27350000D03*
X27300000Y-22100000D03*
X27300000Y-21200000D03*
X19786600Y-25411000D03*
X19786600Y-24511000D03*
X19786600Y-23001400D03*
X19786600Y-23901400D03*
D14*
X20942600Y-25270400D03*
X20942600Y-24770400D03*
X20942600Y-24270400D03*
X20942600Y-23770400D03*
X20942600Y-23270400D03*
X20942600Y-22770400D03*
X20942600Y-22270400D03*
X20942600Y-21770400D03*
D15*
X21592600Y-21120400D03*
X22092600Y-21120400D03*
X22592600Y-21120400D03*
X23092600Y-21120400D03*
X23592600Y-21120400D03*
X24092600Y-21120400D03*
X24592600Y-21120400D03*
X25092600Y-21120400D03*
D14*
X25742600Y-21770400D03*
X25742600Y-22270400D03*
X25742600Y-22770400D03*
X25742600Y-23270400D03*
X25742600Y-23770400D03*
X25742600Y-24270400D03*
X25742600Y-24770400D03*
X25742600Y-25270400D03*
D15*
X25092600Y-25920400D03*
X24592600Y-25920400D03*
X24092600Y-25920400D03*
X23592600Y-25920400D03*
X23092600Y-25920400D03*
X22592600Y-25920400D03*
X22092600Y-25920400D03*
X21592600Y-25920400D03*
D16*
X24205100Y-22657900D03*
X24205100Y-24382900D03*
X22480100Y-22657900D03*
X22480100Y-24382900D03*
D17*
X26238200Y-19177000D03*
X24968200Y-19177000D03*
D18*
X18618200Y-19177000D03*
D17*
X19888200Y-19177000D03*
X21158200Y-19177000D03*
X22428200Y-19177000D03*
X23698200Y-19177000D03*
D19*
X19225600Y-28080400D03*
X19225600Y-27580400D03*
X19225600Y-27080400D03*
X19225600Y-26580400D03*
X22125600Y-26580400D03*
X22125600Y-27080400D03*
X22125600Y-27580400D03*
X22125600Y-28080400D03*
D20*
X21113100Y-26967900D03*
X21113100Y-27692900D03*
X20238100Y-26967900D03*
X20238100Y-27692900D03*
M02*
