G04 #@! TF.FileFunction,Soldermask,Bot*
%FSLAX46Y46*%
G04 Gerber Fmt 4.6, Leading zero omitted, Abs format (unit mm)*
G04 Created by KiCad (PCBNEW 4.0.4+e1-6308~48~ubuntu14.04.1-stable) date Sat Nov 26 19:33:40 2016*
%MOMM*%
%LPD*%
G01*
G04 APERTURE LIST*
%ADD10C,0.350000*%
G04 APERTURE END LIST*
D10*
G36*
X19827600Y-26684000D02*
X19829580Y-26697930D01*
X19835361Y-26710756D01*
X19844488Y-26721464D01*
X19856236Y-26729206D01*
X19869676Y-26733368D01*
X19877600Y-26734000D01*
X21727600Y-26734000D01*
X21741530Y-26732020D01*
X21754356Y-26726239D01*
X21765064Y-26717112D01*
X21772806Y-26705364D01*
X21776968Y-26691924D01*
X21777600Y-26684000D01*
X21777600Y-26559000D01*
X22727600Y-26559000D01*
X22727600Y-28559000D01*
X21777600Y-28559000D01*
X21777600Y-28434000D01*
X21775620Y-28420070D01*
X21769839Y-28407244D01*
X21760712Y-28396536D01*
X21748964Y-28388794D01*
X21735524Y-28384632D01*
X21727600Y-28384000D01*
X19877600Y-28384000D01*
X19863670Y-28385980D01*
X19850844Y-28391761D01*
X19840136Y-28400888D01*
X19832394Y-28412636D01*
X19828232Y-28426076D01*
X19827600Y-28434000D01*
X19827600Y-28559000D01*
X18877600Y-28559000D01*
X18877600Y-26559000D01*
X19827600Y-26559000D01*
X19827600Y-26684000D01*
X19827600Y-26684000D01*
G37*
G36*
X30276800Y-28491500D02*
X28702000Y-28491500D01*
X28702000Y-18433100D01*
X30276800Y-18433100D01*
X30276800Y-28491500D01*
X30276800Y-28491500D01*
G37*
G36*
X18535600Y-28443200D02*
X17735600Y-28443200D01*
X17735600Y-27843200D01*
X18535600Y-27843200D01*
X18535600Y-28443200D01*
X18535600Y-28443200D01*
G37*
G36*
X23972800Y-28136800D02*
X23372800Y-28136800D01*
X23372800Y-27336800D01*
X23972800Y-27336800D01*
X23972800Y-28136800D01*
X23972800Y-28136800D01*
G37*
G36*
X27700000Y-27650000D02*
X26900000Y-27650000D01*
X26900000Y-27050000D01*
X27700000Y-27050000D01*
X27700000Y-27650000D01*
X27700000Y-27650000D01*
G37*
G36*
X27700000Y-26750000D02*
X26900000Y-26750000D01*
X26900000Y-26150000D01*
X27700000Y-26150000D01*
X27700000Y-26750000D01*
X27700000Y-26750000D01*
G37*
G36*
X24303000Y-20620400D02*
X24304980Y-20634330D01*
X24310761Y-20647156D01*
X24319888Y-20657864D01*
X24331636Y-20665606D01*
X24345076Y-20669768D01*
X24353000Y-20670400D01*
X24553000Y-20670400D01*
X24566930Y-20668420D01*
X24579756Y-20662639D01*
X24590464Y-20653512D01*
X24598206Y-20641764D01*
X24602368Y-20628324D01*
X24603000Y-20620400D01*
X24603000Y-19793000D01*
X25203000Y-19793000D01*
X25203000Y-20620400D01*
X25204980Y-20634330D01*
X25210761Y-20647156D01*
X25219888Y-20657864D01*
X25231636Y-20665606D01*
X25245076Y-20669768D01*
X25253000Y-20670400D01*
X25317600Y-20670400D01*
X25317600Y-21495400D01*
X25319580Y-21509330D01*
X25325361Y-21522156D01*
X25334488Y-21532864D01*
X25346236Y-21540606D01*
X25359676Y-21544768D01*
X25367600Y-21545400D01*
X26192600Y-21545400D01*
X26192600Y-25495400D01*
X25367600Y-25495400D01*
X25353670Y-25497380D01*
X25340844Y-25503161D01*
X25330136Y-25512288D01*
X25322394Y-25524036D01*
X25318232Y-25537476D01*
X25317600Y-25545400D01*
X25317600Y-26370400D01*
X21867600Y-26370400D01*
X21867600Y-25470400D01*
X25242600Y-25470400D01*
X25256530Y-25468420D01*
X25269356Y-25462639D01*
X25280064Y-25453512D01*
X25287806Y-25441764D01*
X25291968Y-25428324D01*
X25292600Y-25420400D01*
X25292600Y-21620400D01*
X25290620Y-21606470D01*
X25284839Y-21593644D01*
X25275712Y-21582936D01*
X25263964Y-21575194D01*
X25250524Y-21571032D01*
X25242600Y-21570400D01*
X21442600Y-21570400D01*
X21428670Y-21572380D01*
X21415844Y-21578161D01*
X21405136Y-21587288D01*
X21397394Y-21599036D01*
X21393232Y-21612476D01*
X21392600Y-21620400D01*
X21392600Y-25495400D01*
X20492600Y-25495400D01*
X20492600Y-21545400D01*
X21317600Y-21545400D01*
X21331530Y-21543420D01*
X21344356Y-21537639D01*
X21355064Y-21528512D01*
X21362806Y-21516764D01*
X21366968Y-21503324D01*
X21367600Y-21495400D01*
X21367600Y-20670400D01*
X23653000Y-20670400D01*
X23666930Y-20668420D01*
X23679756Y-20662639D01*
X23690464Y-20653512D01*
X23698206Y-20641764D01*
X23702368Y-20628324D01*
X23703000Y-20620400D01*
X23703000Y-19793000D01*
X24303000Y-19793000D01*
X24303000Y-20620400D01*
X24303000Y-20620400D01*
G37*
G36*
X27700000Y-25750000D02*
X26900000Y-25750000D01*
X26900000Y-25150000D01*
X27700000Y-25150000D01*
X27700000Y-25750000D01*
X27700000Y-25750000D01*
G37*
G36*
X20186600Y-25711000D02*
X19386600Y-25711000D01*
X19386600Y-25111000D01*
X20186600Y-25111000D01*
X20186600Y-25711000D01*
X20186600Y-25711000D01*
G37*
G36*
X25167600Y-25345400D02*
X21517600Y-25345400D01*
X21517600Y-21695400D01*
X25167600Y-21695400D01*
X25167600Y-25345400D01*
X25167600Y-25345400D01*
G37*
G36*
X27700000Y-24850000D02*
X26900000Y-24850000D01*
X26900000Y-24250000D01*
X27700000Y-24250000D01*
X27700000Y-24850000D01*
X27700000Y-24850000D01*
G37*
G36*
X20186600Y-24811000D02*
X19386600Y-24811000D01*
X19386600Y-23601400D01*
X20186600Y-23601400D01*
X20186600Y-24811000D01*
X20186600Y-24811000D01*
G37*
G36*
X19940000Y-22651400D02*
X19941980Y-22665330D01*
X19947761Y-22678156D01*
X19956888Y-22688864D01*
X19968636Y-22696606D01*
X19982076Y-22700768D01*
X19990000Y-22701400D01*
X20186600Y-22701400D01*
X20186600Y-23301400D01*
X19386600Y-23301400D01*
X19386600Y-22750000D01*
X19384620Y-22736070D01*
X19378839Y-22723244D01*
X19369712Y-22712536D01*
X19357964Y-22704794D01*
X19344524Y-22700632D01*
X19336600Y-22700000D01*
X19240000Y-22700000D01*
X19240000Y-21900000D01*
X19940000Y-21900000D01*
X19940000Y-22651400D01*
X19940000Y-22651400D01*
G37*
G36*
X18130000Y-22599600D02*
X17430000Y-22599600D01*
X17430000Y-21799600D01*
X18130000Y-21799600D01*
X18130000Y-22599600D01*
X18130000Y-22599600D01*
G37*
G36*
X27700000Y-22400000D02*
X26900000Y-22400000D01*
X26900000Y-21800000D01*
X27700000Y-21800000D01*
X27700000Y-22400000D01*
X27700000Y-22400000D01*
G37*
G36*
X19940000Y-21600000D02*
X19240000Y-21600000D01*
X19240000Y-20800000D01*
X19940000Y-20800000D01*
X19940000Y-21600000D01*
X19940000Y-21600000D01*
G37*
G36*
X27700000Y-21500000D02*
X26900000Y-21500000D01*
X26900000Y-20900000D01*
X27700000Y-20900000D01*
X27700000Y-21500000D01*
X27700000Y-21500000D01*
G37*
G36*
X18130000Y-21499600D02*
X17430000Y-21499600D01*
X17430000Y-20699600D01*
X18130000Y-20699600D01*
X18130000Y-21499600D01*
X18130000Y-21499600D01*
G37*
G36*
X27705000Y-20732600D02*
X26905000Y-20732600D01*
X26905000Y-20132600D01*
X27705000Y-20132600D01*
X27705000Y-20732600D01*
X27705000Y-20732600D01*
G37*
G36*
X27705000Y-19832600D02*
X26905000Y-19832600D01*
X26905000Y-19232600D01*
X27705000Y-19232600D01*
X27705000Y-19832600D01*
X27705000Y-19832600D01*
G37*
G36*
X21197335Y-18804646D02*
X21268916Y-18819339D01*
X21336277Y-18847656D01*
X21396855Y-18888515D01*
X21448342Y-18940363D01*
X21488781Y-19001229D01*
X21516625Y-19068784D01*
X21530750Y-19140120D01*
X21530750Y-19140131D01*
X21530816Y-19140465D01*
X21529651Y-19223925D01*
X21529575Y-19224259D01*
X21529575Y-19224270D01*
X21513464Y-19295182D01*
X21483745Y-19361932D01*
X21441621Y-19421646D01*
X21388710Y-19472033D01*
X21327008Y-19511190D01*
X21258884Y-19537613D01*
X21186926Y-19550301D01*
X21113871Y-19548772D01*
X21042499Y-19533079D01*
X20975543Y-19503827D01*
X20915541Y-19462124D01*
X20864782Y-19409562D01*
X20825198Y-19348138D01*
X20798299Y-19280202D01*
X20785107Y-19208326D01*
X20786128Y-19135264D01*
X20801319Y-19063793D01*
X20830107Y-18996629D01*
X20871389Y-18936337D01*
X20923598Y-18885210D01*
X20984740Y-18845200D01*
X21052490Y-18817827D01*
X21124263Y-18804136D01*
X21197335Y-18804646D01*
X21197335Y-18804646D01*
G37*
G36*
X22467335Y-18804646D02*
X22538916Y-18819339D01*
X22606277Y-18847656D01*
X22666855Y-18888515D01*
X22718342Y-18940363D01*
X22758781Y-19001229D01*
X22786625Y-19068784D01*
X22800750Y-19140120D01*
X22800750Y-19140131D01*
X22800816Y-19140465D01*
X22799651Y-19223925D01*
X22799575Y-19224259D01*
X22799575Y-19224270D01*
X22783464Y-19295182D01*
X22753745Y-19361932D01*
X22711621Y-19421646D01*
X22658710Y-19472033D01*
X22597008Y-19511190D01*
X22528884Y-19537613D01*
X22456926Y-19550301D01*
X22383871Y-19548772D01*
X22312499Y-19533079D01*
X22245543Y-19503827D01*
X22185541Y-19462124D01*
X22134782Y-19409562D01*
X22095198Y-19348138D01*
X22068299Y-19280202D01*
X22055107Y-19208326D01*
X22056128Y-19135264D01*
X22071319Y-19063793D01*
X22100107Y-18996629D01*
X22141389Y-18936337D01*
X22193598Y-18885210D01*
X22254740Y-18845200D01*
X22322490Y-18817827D01*
X22394263Y-18804136D01*
X22467335Y-18804646D01*
X22467335Y-18804646D01*
G37*
G36*
X23737335Y-18804646D02*
X23808916Y-18819339D01*
X23876277Y-18847656D01*
X23936855Y-18888515D01*
X23988342Y-18940363D01*
X24028781Y-19001229D01*
X24056625Y-19068784D01*
X24070750Y-19140120D01*
X24070750Y-19140131D01*
X24070816Y-19140465D01*
X24069651Y-19223925D01*
X24069575Y-19224259D01*
X24069575Y-19224270D01*
X24053464Y-19295182D01*
X24023745Y-19361932D01*
X23981621Y-19421646D01*
X23928710Y-19472033D01*
X23867008Y-19511190D01*
X23798884Y-19537613D01*
X23726926Y-19550301D01*
X23653871Y-19548772D01*
X23582499Y-19533079D01*
X23515543Y-19503827D01*
X23455541Y-19462124D01*
X23404782Y-19409562D01*
X23365198Y-19348138D01*
X23338299Y-19280202D01*
X23325107Y-19208326D01*
X23326128Y-19135264D01*
X23341319Y-19063793D01*
X23370107Y-18996629D01*
X23411389Y-18936337D01*
X23463598Y-18885210D01*
X23524740Y-18845200D01*
X23592490Y-18817827D01*
X23664263Y-18804136D01*
X23737335Y-18804646D01*
X23737335Y-18804646D01*
G37*
G36*
X25007335Y-18804646D02*
X25078916Y-18819339D01*
X25146277Y-18847656D01*
X25206855Y-18888515D01*
X25258342Y-18940363D01*
X25298781Y-19001229D01*
X25326625Y-19068784D01*
X25340750Y-19140120D01*
X25340750Y-19140131D01*
X25340816Y-19140465D01*
X25339651Y-19223925D01*
X25339575Y-19224259D01*
X25339575Y-19224270D01*
X25323464Y-19295182D01*
X25293745Y-19361932D01*
X25251621Y-19421646D01*
X25198710Y-19472033D01*
X25137008Y-19511190D01*
X25068884Y-19537613D01*
X24996926Y-19550301D01*
X24923871Y-19548772D01*
X24852499Y-19533079D01*
X24785543Y-19503827D01*
X24725541Y-19462124D01*
X24674782Y-19409562D01*
X24635198Y-19348138D01*
X24608299Y-19280202D01*
X24595107Y-19208326D01*
X24596128Y-19135264D01*
X24611319Y-19063793D01*
X24640107Y-18996629D01*
X24681389Y-18936337D01*
X24733598Y-18885210D01*
X24794740Y-18845200D01*
X24862490Y-18817827D01*
X24934263Y-18804136D01*
X25007335Y-18804646D01*
X25007335Y-18804646D01*
G37*
G36*
X26277335Y-18804646D02*
X26348916Y-18819339D01*
X26416277Y-18847656D01*
X26476855Y-18888515D01*
X26528342Y-18940363D01*
X26568781Y-19001229D01*
X26596625Y-19068784D01*
X26610750Y-19140120D01*
X26610750Y-19140131D01*
X26610816Y-19140465D01*
X26609651Y-19223925D01*
X26609575Y-19224259D01*
X26609575Y-19224270D01*
X26593464Y-19295182D01*
X26563745Y-19361932D01*
X26521621Y-19421646D01*
X26468710Y-19472033D01*
X26407008Y-19511190D01*
X26338884Y-19537613D01*
X26266926Y-19550301D01*
X26193871Y-19548772D01*
X26122499Y-19533079D01*
X26055543Y-19503827D01*
X25995541Y-19462124D01*
X25944782Y-19409562D01*
X25905198Y-19348138D01*
X25878299Y-19280202D01*
X25865107Y-19208326D01*
X25866128Y-19135264D01*
X25881319Y-19063793D01*
X25910107Y-18996629D01*
X25951389Y-18936337D01*
X26003598Y-18885210D01*
X26064740Y-18845200D01*
X26132490Y-18817827D01*
X26204263Y-18804136D01*
X26277335Y-18804646D01*
X26277335Y-18804646D01*
G37*
G36*
X19927335Y-18804646D02*
X19998916Y-18819339D01*
X20066277Y-18847656D01*
X20126855Y-18888515D01*
X20178342Y-18940363D01*
X20218781Y-19001229D01*
X20246625Y-19068784D01*
X20260750Y-19140120D01*
X20260750Y-19140131D01*
X20260816Y-19140465D01*
X20259651Y-19223925D01*
X20259575Y-19224259D01*
X20259575Y-19224270D01*
X20243464Y-19295182D01*
X20213745Y-19361932D01*
X20171621Y-19421646D01*
X20118710Y-19472033D01*
X20057008Y-19511190D01*
X19988884Y-19537613D01*
X19916926Y-19550301D01*
X19843871Y-19548772D01*
X19772499Y-19533079D01*
X19705543Y-19503827D01*
X19645541Y-19462124D01*
X19594782Y-19409562D01*
X19555198Y-19348138D01*
X19528299Y-19280202D01*
X19515107Y-19208326D01*
X19516128Y-19135264D01*
X19531319Y-19063793D01*
X19560107Y-18996629D01*
X19601389Y-18936337D01*
X19653598Y-18885210D01*
X19714740Y-18845200D01*
X19782490Y-18817827D01*
X19854263Y-18804136D01*
X19927335Y-18804646D01*
X19927335Y-18804646D01*
G37*
G36*
X18990800Y-19549600D02*
X18245600Y-19549600D01*
X18245600Y-18804400D01*
X18990800Y-18804400D01*
X18990800Y-19549600D01*
X18990800Y-19549600D01*
G37*
M02*
